<?xml version="1.0" encoding="UTF-8"?>
<svg id="Capa_1" xmlns="http://www.w3.org/2000/svg" version="1.1" viewBox="0 0 263.8 247">
  <!-- Generator: Adobe Illustrator 29.0.1, SVG Export Plug-In . SVG Version: 2.1.0 Build 192)  -->
  <defs>
    <style>
      .st0 {
        fill: #334255;
      }
    </style>
  </defs>
  <path class="st0" d="M204.6,143.6c-4.4-6.8-11.6-12-21.7-15.8-10.1-3.7-23.7-5.6-40.8-5.6,6.6,0,13.6-.4,21-1.3,7.4-.9,14.3-2.8,20.7-5.6,6.4-2.8,11.7-7.1,15.8-12.8,4.1-5.7,6.1-13.4,6.1-23s-1.8-15.5-5.4-22.5c-3.6-7-9.5-12.5-17.8-16.7s-19.8-6.3-34.4-6.3H54.4c-1,0-1.9.8-1.9,1.9v148.6c0,2.1,2.8,2.6,3.6.7l35-86.7c1.5-3.7,5.7-5.5,9.4-4,3.7,1.5,5.5,5.7,4,9.5l-43.1,106.7c-.5,1.2.4,2.6,1.7,2.6h84.3c12.7,0,23.8-1.4,33.3-4.1,9.5-2.8,17-7.4,22.3-14,5.4-6.6,8-15.8,8-27.6s-2.2-17-6.6-23.8ZM178.4,171.4l-61.6,34.5c-1.3.7-2.6,1-4,1-2.6,0-5-1.2-6.5-3.2-2.2-3.2-1.1-7.5,2.5-9.5l47.6-26.6c1.3-.7,1.3-2.6,0-3.3l-47.3-24.2c-3.7-1.9-5-6.1-2.9-9.4,2.1-3.3,6.8-4.5,10.4-2.6l61.6,31.5c2.3,1.2,3.8,3.4,3.9,5.8,0,2.4-1.3,4.7-3.6,6Z"/>
</svg>