<?xml version="1.0" encoding="UTF-8"?>
<svg id="Capa_1" data-name="Capa 1" xmlns="http://www.w3.org/2000/svg" viewBox="0 0 892.51 245.23">
  <defs>
    <style>
      .cls-1 {
        fill: #334255;
      }
    </style>
  </defs>
  <g>
    <rect class="cls-1" x="70.76" y="180.34" width="3.75" height="28.48"/>
    <path class="cls-1" d="M96.91,190.97c-.69-.86-1.54-1.57-2.56-2.13-1.33-.73-2.84-1.09-4.55-1.09-1.94,0-3.68.47-5.22,1.41-1.54.94-2.76,2.22-3.65,3.84-.89,1.62-1.34,3.46-1.34,5.52s.45,3.84,1.34,5.47c.89,1.63,2.11,2.92,3.65,3.86,1.54.94,3.28,1.41,5.22,1.41,1.68,0,3.2-.37,4.57-1.11,1.1-.6,1.98-1.4,2.66-2.4v3.05h3.48v-28.94h-3.59v11.09ZM96.01,202.27c-.6,1.11-1.41,1.98-2.43,2.62-1.02.64-2.18.96-3.48.96s-2.46-.32-3.48-.96c-1.02-.64-1.82-1.51-2.41-2.62-.59-1.11-.88-2.35-.88-3.73s.29-2.68.88-3.77c.59-1.08,1.4-1.95,2.43-2.6,1.03-.65,2.18-.98,3.46-.98s2.46.32,3.48.96c1.02.64,1.83,1.51,2.43,2.62.6,1.11.9,2.36.9,3.77s-.3,2.62-.9,3.73Z"/>
    <path class="cls-1" d="M122.27,190.8c-.83-.93-1.83-1.67-3.02-2.22-1.18-.55-2.54-.82-4.07-.82-1.89,0-3.59.47-5.1,1.4-1.52.93-2.71,2.2-3.59,3.8-.88,1.61-1.32,3.44-1.32,5.5s.45,3.88,1.34,5.52c.89,1.64,2.11,2.94,3.67,3.88,1.55.94,3.33,1.41,5.31,1.41,1.43,0,2.72-.23,3.88-.69,1.16-.46,2.17-1.08,3.02-1.85.85-.78,1.48-1.64,1.89-2.58l-2.98-1.53c-.59.99-1.35,1.81-2.29,2.45-.94.64-2.1.96-3.48.96-1.25,0-2.4-.31-3.46-.94-1.06-.62-1.87-1.5-2.45-2.64-.43-.86-.67-1.82-.72-2.89h15.76c.05-.31.1-.63.13-.97.04-.34.06-.66.06-.94,0-1.27-.22-2.5-.67-3.69-.45-1.19-1.08-2.24-1.91-3.17ZM111.9,191.85c.99-.61,2.09-.92,3.29-.92s2.27.31,3.21.92c.94.61,1.66,1.44,2.14,2.49.31.67.46,1.4.47,2.18h-12.02c.11-.74.3-1.43.6-2.05.55-1.13,1.32-2.01,2.31-2.62Z"/>
    <path class="cls-1" d="M141.87,188.66c-1.2-.6-2.59-.9-4.17-.9-1.22,0-2.4.22-3.52.65-1.12.43-2.1,1.03-2.94,1.78-.84.75-1.45,1.6-1.83,2.54l3.1,1.61c.43-.99,1.1-1.79,2.01-2.39.9-.6,1.94-.9,3.12-.9,1.35,0,2.44.35,3.27,1.05.83.7,1.24,1.61,1.24,2.73v.94l-7.03,1.16c-1.53.25-2.8.69-3.8,1.3-1.01.61-1.75,1.36-2.22,2.24-.47.88-.71,1.87-.71,2.96s.29,2.16.88,3.04c.59.88,1.4,1.57,2.43,2.06,1.03.5,2.22.75,3.57.75,1.17,0,2.26-.18,3.25-.53s1.86-.84,2.6-1.45c.42-.35.79-.73,1.11-1.15v2.68h3.48v-13.99c0-1.4-.34-2.63-1.01-3.69-.68-1.06-1.61-1.89-2.81-2.48ZM141.31,203.2c-.55.94-1.3,1.69-2.26,2.24-.96.55-2.08.82-3.38.82-1.02,0-1.87-.28-2.54-.84-.68-.56-1.01-1.26-1.01-2.1,0-.89.3-1.64.9-2.26.6-.61,1.56-1.03,2.89-1.26l6.23-1.04v1.31c0,1.15-.27,2.19-.82,3.13Z"/>
    <path class="cls-1" d="M160.75,197.35l-3.36-.99c-.41-.13-.83-.29-1.26-.48-.43-.19-.8-.47-1.11-.84-.31-.37-.46-.85-.46-1.43,0-.79.31-1.45.92-1.97.61-.52,1.44-.78,2.49-.78,1.15,0,2.18.31,3.1.94.92.62,1.61,1.47,2.06,2.54l2.91-1.34c-.61-1.66-1.64-2.94-3.08-3.86-1.44-.92-3.06-1.38-4.87-1.38-1.35,0-2.57.26-3.65.76-1.08.51-1.94,1.22-2.56,2.12-.62.91-.94,1.97-.94,3.19,0,1.33.43,2.48,1.28,3.48.85.99,2.21,1.76,4.07,2.29l3.1.88c.41.1.85.26,1.34.48.48.22.9.51,1.24.88.34.37.52.86.52,1.47,0,.87-.37,1.57-1.11,2.1-.74.54-1.67.8-2.79.8-1.25,0-2.38-.36-3.4-1.07-1.02-.71-1.82-1.68-2.41-2.91l-2.83,1.38c.64,1.73,1.72,3.11,3.25,4.13,1.53,1.02,3.33,1.53,5.39,1.53,1.48,0,2.78-.25,3.9-.76,1.12-.51,2-1.22,2.64-2.14.64-.92.96-1.95.96-3.1,0-1.43-.47-2.65-1.4-3.67-.93-1.02-2.24-1.77-3.92-2.26Z"/>
    <polygon class="cls-1" points="184.76 203.8 178.99 188.22 175.01 188.22 183.08 208.82 186.44 208.82 194.55 188.22 190.57 188.22 184.76 203.8"/>
    <path class="cls-1" d="M209.61,188.66c-1.2-.6-2.59-.9-4.17-.9-1.22,0-2.4.22-3.52.65-1.12.43-2.1,1.03-2.94,1.78-.84.75-1.45,1.6-1.83,2.54l3.1,1.61c.43-.99,1.1-1.79,2.01-2.39.9-.6,1.94-.9,3.12-.9,1.35,0,2.44.35,3.27,1.05.83.7,1.24,1.61,1.24,2.73v.94l-7.03,1.16c-1.53.25-2.8.69-3.8,1.3-1.01.61-1.75,1.36-2.22,2.24-.47.88-.71,1.87-.71,2.96s.29,2.16.88,3.04c.59.88,1.4,1.57,2.43,2.06,1.03.5,2.22.75,3.57.75,1.17,0,2.26-.18,3.25-.53s1.86-.84,2.6-1.45c.42-.35.79-.73,1.11-1.15v2.68h3.48v-13.99c0-1.4-.34-2.63-1.01-3.69-.68-1.06-1.61-1.89-2.81-2.48ZM209.05,203.2c-.55.94-1.3,1.69-2.26,2.24-.96.55-2.08.82-3.38.82-1.02,0-1.87-.28-2.54-.84-.68-.56-1.01-1.26-1.01-2.1,0-.89.3-1.64.9-2.26.6-.61,1.56-1.03,2.89-1.26l6.23-1.04v1.31c0,1.15-.27,2.19-.82,3.13Z"/>
    <rect class="cls-1" x="218.93" y="179.88" width="3.56" height="28.94"/>
    <rect class="cls-1" x="227.99" y="188.22" width="3.56" height="20.6"/>
    <rect class="cls-1" x="227.99" y="180.34" width="3.56" height="4.59"/>
    <path class="cls-1" d="M253.32,190.8c-.83-.93-1.83-1.67-3.02-2.22-1.18-.55-2.54-.82-4.07-.82-1.89,0-3.59.47-5.1,1.4-1.52.93-2.71,2.2-3.59,3.8-.88,1.61-1.32,3.44-1.32,5.5s.45,3.88,1.34,5.52c.89,1.64,2.11,2.94,3.67,3.88,1.55.94,3.33,1.41,5.31,1.41,1.43,0,2.72-.23,3.88-.69,1.16-.46,2.17-1.08,3.02-1.85.85-.78,1.48-1.64,1.89-2.58l-2.98-1.53c-.59.99-1.35,1.81-2.29,2.45-.94.64-2.1.96-3.48.96-1.25,0-2.4-.31-3.46-.94-1.06-.62-1.87-1.5-2.45-2.64-.43-.86-.67-1.82-.72-2.89h15.76c.05-.31.1-.63.13-.97.04-.34.06-.66.06-.94,0-1.27-.22-2.5-.67-3.69-.45-1.19-1.08-2.24-1.91-3.17ZM242.94,191.85c.99-.61,2.09-.92,3.29-.92s2.27.31,3.21.92c.94.61,1.66,1.44,2.14,2.49.31.67.46,1.4.47,2.18h-12.02c.11-.74.3-1.43.6-2.05.55-1.13,1.32-2.01,2.31-2.62Z"/>
    <path class="cls-1" d="M273.85,188.75c-1.16-.66-2.48-.99-3.96-.99s-2.86.36-3.99,1.09c-.78.5-1.41,1.15-1.89,1.92v-2.55h-3.48v20.6h3.56v-12.19c0-1.12.22-2.08.65-2.89.43-.8,1.03-1.43,1.78-1.87.75-.45,1.61-.67,2.58-.67s1.83.22,2.58.67c.75.45,1.33,1.06,1.74,1.85.41.79.61,1.76.61,2.91v12.19h3.59v-13.34c0-1.48-.34-2.8-1.01-3.98-.68-1.17-1.59-2.09-2.75-2.75Z"/>
    <path class="cls-1" d="M291.8,205.8c-.84,0-1.52-.15-2.03-.44-.51-.29-.87-.69-1.09-1.2-.22-.51-.32-1.11-.32-1.8v-10.74h4.63v-3.4h-4.63v-4.74h-3.56v1.68c0,.92-.27,1.66-.8,2.22-.54.56-1.26.84-2.18.84h-.76v3.4h3.75v10.86c0,2.09.54,3.71,1.62,4.85,1.08,1.15,2.63,1.72,4.64,1.72.28,0,.62-.02,1.03-.06.41-.04.78-.1,1.11-.17v-3.13c-.23.03-.48.05-.75.08-.27.03-.49.04-.67.04Z"/>
    <path class="cls-1" d="M313.53,190.8c-.83-.93-1.83-1.67-3.02-2.22-1.18-.55-2.54-.82-4.07-.82-1.89,0-3.59.47-5.1,1.4-1.52.93-2.71,2.2-3.59,3.8-.88,1.61-1.32,3.44-1.32,5.5s.45,3.88,1.34,5.52c.89,1.64,2.11,2.94,3.67,3.88,1.55.94,3.33,1.41,5.31,1.41,1.43,0,2.72-.23,3.88-.69,1.16-.46,2.17-1.08,3.02-1.85.85-.78,1.48-1.64,1.89-2.58l-2.98-1.53c-.59.99-1.35,1.81-2.29,2.45-.94.64-2.1.96-3.48.96-1.25,0-2.4-.31-3.46-.94-1.06-.62-1.87-1.5-2.45-2.64-.43-.86-.67-1.82-.72-2.89h15.76c.05-.31.1-.63.13-.97.04-.34.06-.66.06-.94,0-1.27-.22-2.5-.67-3.69-.45-1.19-1.08-2.24-1.91-3.17ZM303.15,191.85c.99-.61,2.09-.92,3.29-.92s2.27.31,3.21.92c.94.61,1.66,1.44,2.14,2.49.31.67.46,1.4.47,2.18h-12.02c.11-.74.3-1.43.6-2.05.55-1.13,1.32-2.01,2.31-2.62Z"/>
    <path class="cls-1" d="M330.29,197.35l-3.36-.99c-.41-.13-.83-.29-1.26-.48-.43-.19-.8-.47-1.11-.84-.31-.37-.46-.85-.46-1.43,0-.79.31-1.45.92-1.97s1.44-.78,2.49-.78c1.15,0,2.18.31,3.1.94.92.62,1.61,1.47,2.06,2.54l2.91-1.34c-.61-1.66-1.64-2.94-3.08-3.86-1.44-.92-3.06-1.38-4.87-1.38-1.35,0-2.57.26-3.65.76-1.08.51-1.94,1.22-2.56,2.12-.62.91-.94,1.97-.94,3.19,0,1.33.43,2.48,1.28,3.48.85.99,2.21,1.76,4.07,2.29l3.1.88c.41.1.85.26,1.34.48.48.22.9.51,1.24.88.34.37.52.86.52,1.47,0,.87-.37,1.57-1.11,2.1-.74.54-1.67.8-2.79.8-1.25,0-2.38-.36-3.4-1.07-1.02-.71-1.82-1.68-2.41-2.91l-2.83,1.38c.64,1.73,1.72,3.11,3.25,4.13,1.53,1.02,3.33,1.53,5.39,1.53,1.48,0,2.78-.25,3.9-.76,1.12-.51,2-1.22,2.64-2.14.64-.92.96-1.95.96-3.1,0-1.43-.47-2.65-1.4-3.67-.93-1.02-2.24-1.77-3.92-2.26Z"/>
    <path class="cls-1" d="M341.65,208.82h1.72c-.05,1.02-.28,1.82-.69,2.41-.41.59-1.01.98-1.8,1.18v1.72c1.48-.36,2.59-1.1,3.35-2.22.75-1.12,1.13-2.6,1.13-4.43v-3.25h-3.71v4.59Z"/>
    <path class="cls-1" d="M374.58,190.8c-.83-.93-1.83-1.67-3.02-2.22-1.18-.55-2.54-.82-4.07-.82-1.89,0-3.59.47-5.1,1.4-1.52.93-2.71,2.2-3.59,3.8-.88,1.61-1.32,3.44-1.32,5.5s.45,3.88,1.34,5.52c.89,1.64,2.11,2.94,3.67,3.88,1.55.94,3.33,1.41,5.31,1.41,1.43,0,2.72-.23,3.88-.69,1.16-.46,2.17-1.08,3.02-1.85.85-.78,1.48-1.64,1.89-2.58l-2.98-1.53c-.59.99-1.35,1.81-2.29,2.45-.94.64-2.1.96-3.48.96-1.25,0-2.4-.31-3.46-.94-1.06-.62-1.87-1.5-2.45-2.64-.43-.86-.67-1.82-.72-2.89h15.76c.05-.31.1-.63.13-.97.04-.34.06-.66.06-.94,0-1.27-.22-2.5-.67-3.69-.45-1.19-1.08-2.24-1.91-3.17ZM364.2,191.85c.99-.61,2.09-.92,3.29-.92s2.27.31,3.21.92c.94.61,1.66,1.44,2.14,2.49.31.67.46,1.4.47,2.18h-12.02c.11-.74.3-1.43.6-2.05.55-1.13,1.32-2.01,2.31-2.62Z"/>
    <polygon class="cls-1" points="393.45 188.22 388.45 195.57 383.39 188.22 379.11 188.22 386.3 198.5 379.07 208.82 383.43 208.82 388.44 201.45 393.45 208.82 397.73 208.82 390.58 198.5 397.77 188.22 393.45 188.22"/>
    <path class="cls-1" d="M416.86,189.17c-1.54-.94-3.28-1.41-5.22-1.41-1.71,0-3.22.36-4.55,1.09-1.08.59-1.97,1.36-2.68,2.29v-2.92h-3.48v28.25h3.56v-10.54c.68.93,1.54,1.67,2.58,2.24,1.36.74,2.87,1.11,4.53,1.11,1.96,0,3.71-.47,5.26-1.41,1.54-.94,2.76-2.23,3.65-3.86.89-1.63,1.34-3.45,1.34-5.47s-.45-3.91-1.34-5.52c-.89-1.62-2.11-2.9-3.65-3.84ZM417.2,202.27c-.57,1.11-1.37,1.98-2.39,2.62-1.02.64-2.18.96-3.48.96s-2.47-.32-3.5-.96c-1.03-.64-1.85-1.51-2.45-2.62-.6-1.11-.9-2.35-.9-3.73s.3-2.66.9-3.77c.6-1.11,1.41-1.98,2.45-2.62,1.03-.64,2.2-.96,3.5-.96s2.46.33,3.48.98c1.02.65,1.82,1.52,2.39,2.6.57,1.08.86,2.34.86,3.77s-.29,2.62-.86,3.73Z"/>
    <path class="cls-1" d="M442.78,190.8c-.83-.93-1.83-1.67-3.02-2.22-1.18-.55-2.54-.82-4.07-.82-1.89,0-3.59.47-5.1,1.4-1.52.93-2.71,2.2-3.59,3.8-.88,1.61-1.32,3.44-1.32,5.5s.45,3.88,1.34,5.52c.89,1.64,2.11,2.94,3.67,3.88,1.55.94,3.33,1.41,5.31,1.41,1.43,0,2.72-.23,3.88-.69,1.16-.46,2.17-1.08,3.02-1.85.85-.78,1.48-1.64,1.89-2.58l-2.98-1.53c-.59.99-1.35,1.81-2.29,2.45-.94.64-2.1.96-3.48.96-1.25,0-2.4-.31-3.46-.94-1.06-.62-1.87-1.5-2.45-2.64-.43-.86-.67-1.82-.72-2.89h15.76c.05-.31.1-.63.13-.97.04-.34.06-.66.06-.94,0-1.27-.22-2.5-.67-3.69-.45-1.19-1.08-2.24-1.91-3.17ZM432.4,191.85c.99-.61,2.09-.92,3.29-.92s2.27.31,3.21.92c.94.61,1.66,1.44,2.14,2.49.31.67.46,1.4.47,2.18h-12.02c.11-.74.3-1.43.6-2.05.55-1.13,1.32-2.01,2.31-2.62Z"/>
    <path class="cls-1" d="M455.3,188.85c-.76.44-1.37,1.06-1.83,1.85v-2.48h-3.48v20.6h3.56v-12.27c0-1.66.45-2.94,1.34-3.84.89-.9,2.06-1.36,3.52-1.36h1.8v-3.36h-1.26c-1.43,0-2.64.29-3.63.86Z"/>
    <rect class="cls-1" x="463.36" y="180.34" width="3.56" height="4.59"/>
    <rect class="cls-1" x="463.36" y="188.22" width="3.56" height="20.6"/>
    <path class="cls-1" d="M488.69,190.8c-.83-.93-1.83-1.67-3.02-2.22-1.18-.55-2.54-.82-4.07-.82-1.89,0-3.59.47-5.1,1.4-1.52.93-2.71,2.2-3.59,3.8-.88,1.61-1.32,3.44-1.32,5.5s.45,3.88,1.34,5.52c.89,1.64,2.11,2.94,3.67,3.88,1.55.94,3.33,1.41,5.31,1.41,1.43,0,2.72-.23,3.88-.69,1.16-.46,2.17-1.08,3.02-1.85.85-.78,1.48-1.64,1.89-2.58l-2.98-1.53c-.59.99-1.35,1.81-2.29,2.45-.94.64-2.1.96-3.48.96-1.25,0-2.4-.31-3.46-.94-1.06-.62-1.87-1.5-2.45-2.64-.43-.86-.67-1.82-.72-2.89h15.76c.05-.31.1-.63.13-.97.04-.34.06-.66.06-.94,0-1.27-.22-2.5-.67-3.69-.45-1.19-1.08-2.24-1.91-3.17ZM478.31,191.85c.99-.61,2.09-.92,3.29-.92s2.27.31,3.21.92c.94.61,1.66,1.44,2.14,2.49.31.67.46,1.4.47,2.18h-12.02c.11-.74.3-1.43.6-2.05.55-1.13,1.32-2.01,2.31-2.62Z"/>
    <path class="cls-1" d="M509.22,188.75c-1.16-.66-2.48-.99-3.96-.99s-2.86.36-3.99,1.09c-.78.5-1.41,1.15-1.89,1.92v-2.55h-3.48v20.6h3.56v-12.19c0-1.12.22-2.08.65-2.89.43-.8,1.03-1.43,1.78-1.87.75-.45,1.61-.67,2.58-.67s1.83.22,2.58.67c.75.45,1.33,1.06,1.74,1.85.41.79.61,1.76.61,2.91v12.19h3.59v-13.34c0-1.48-.34-2.8-1.01-3.98-.68-1.17-1.59-2.09-2.75-2.75Z"/>
    <path class="cls-1" d="M524.24,192.15c1.01-.64,2.13-.96,3.38-.96s2.45.34,3.44,1.01c.99.68,1.73,1.55,2.22,2.62l3.17-1.53c-.41-1.1-1.06-2.05-1.95-2.87-.89-.82-1.92-1.47-3.1-1.95-1.17-.48-2.43-.73-3.78-.73-2.01,0-3.8.47-5.37,1.41-1.57.94-2.8,2.22-3.69,3.82-.89,1.61-1.34,3.44-1.34,5.5s.45,3.87,1.34,5.5c.89,1.63,2.12,2.92,3.69,3.86,1.57.94,3.36,1.41,5.37,1.41,1.35,0,2.61-.24,3.78-.73,1.17-.48,2.2-1.14,3.1-1.97.89-.83,1.54-1.78,1.95-2.85l-3.17-1.61c-.48,1.12-1.22,2.02-2.22,2.7-.99.68-2.14,1.01-3.44,1.01s-2.38-.32-3.38-.96c-1.01-.64-1.8-1.51-2.39-2.62-.59-1.11-.88-2.35-.88-3.73s.29-2.69.88-3.78c.59-1.1,1.38-1.96,2.39-2.6Z"/>
    <rect class="cls-1" x="541.12" y="180.34" width="3.56" height="4.59"/>
    <rect class="cls-1" x="541.12" y="188.22" width="3.56" height="20.6"/>
    <path class="cls-1" d="M562.83,188.66c-1.2-.6-2.59-.9-4.17-.9-1.22,0-2.4.22-3.52.65-1.12.43-2.1,1.03-2.94,1.78-.84.75-1.45,1.6-1.83,2.54l3.1,1.61c.43-.99,1.1-1.79,2.01-2.39.9-.6,1.94-.9,3.12-.9,1.35,0,2.44.35,3.27,1.05.83.7,1.24,1.61,1.24,2.73v.94l-7.03,1.16c-1.53.25-2.8.69-3.8,1.3-1.01.61-1.75,1.36-2.22,2.24-.47.88-.71,1.87-.71,2.96s.29,2.16.88,3.04c.59.88,1.4,1.57,2.43,2.06,1.03.5,2.22.75,3.57.75,1.17,0,2.26-.18,3.25-.53.99-.36,1.86-.84,2.6-1.45.42-.35.79-.73,1.11-1.15v2.68h3.48v-13.99c0-1.4-.34-2.63-1.01-3.69-.68-1.06-1.61-1.89-2.81-2.48ZM562.28,203.2c-.55.94-1.3,1.69-2.26,2.24-.96.55-2.08.82-3.38.82-1.02,0-1.87-.28-2.54-.84-.68-.56-1.01-1.26-1.01-2.1,0-.89.3-1.64.9-2.26.6-.61,1.56-1.03,2.89-1.26l6.23-1.04v1.31c0,1.15-.27,2.19-.82,3.13Z"/>
    <path class="cls-1" d="M581.72,197.35l-3.36-.99c-.41-.13-.83-.29-1.26-.48-.43-.19-.8-.47-1.11-.84-.31-.37-.46-.85-.46-1.43,0-.79.31-1.45.92-1.97.61-.52,1.44-.78,2.48-.78,1.15,0,2.18.31,3.1.94.92.62,1.61,1.47,2.06,2.54l2.91-1.34c-.61-1.66-1.64-2.94-3.08-3.86-1.44-.92-3.07-1.38-4.87-1.38-1.35,0-2.57.26-3.65.76-1.08.51-1.94,1.22-2.56,2.12-.62.91-.94,1.97-.94,3.19,0,1.33.43,2.48,1.28,3.48.85.99,2.21,1.76,4.07,2.29l3.1.88c.41.1.85.26,1.34.48.48.22.9.51,1.24.88.34.37.52.86.52,1.47,0,.87-.37,1.57-1.11,2.1-.74.54-1.67.8-2.79.8-1.25,0-2.38-.36-3.4-1.07-1.02-.71-1.82-1.68-2.41-2.91l-2.83,1.38c.64,1.73,1.72,3.11,3.25,4.13,1.53,1.02,3.33,1.53,5.39,1.53,1.48,0,2.78-.25,3.9-.76s2-1.22,2.64-2.14c.64-.92.96-1.95.96-3.1,0-1.43-.47-2.65-1.4-3.67-.93-1.02-2.24-1.77-3.92-2.26Z"/>
    <path class="cls-1" d="M624.36,188.75c-1.16-.66-2.45-.99-3.88-.99-1.55,0-2.97.41-4.24,1.24-.94.61-1.68,1.44-2.22,2.47-.51-.94-1.23-1.73-2.16-2.38-1.29-.89-2.73-1.34-4.34-1.34-1.4,0-2.66.34-3.78,1.03-.81.5-1.46,1.16-1.95,1.98v-2.55h-3.48v20.6h3.56v-12.19c0-1.12.21-2.08.63-2.89s.99-1.43,1.72-1.87c.73-.45,1.55-.67,2.47-.67s1.76.22,2.47.67c.7.45,1.25,1.06,1.66,1.85.41.79.61,1.76.61,2.91v12.19h3.59v-12.19c0-1.12.21-2.08.63-2.89.42-.8.99-1.43,1.72-1.87.73-.45,1.55-.67,2.47-.67s1.76.22,2.47.67c.7.45,1.26,1.06,1.66,1.85.41.79.61,1.76.61,2.91v12.19h3.59v-13.34c0-1.48-.34-2.8-1.03-3.98-.69-1.17-1.61-2.09-2.77-2.75Z"/>
    <path class="cls-1" d="M649.48,190.8c-.83-.93-1.84-1.67-3.02-2.22-1.19-.55-2.54-.82-4.07-.82-1.89,0-3.59.47-5.1,1.4-1.52.93-2.71,2.2-3.59,3.8-.88,1.61-1.32,3.44-1.32,5.5s.45,3.88,1.34,5.52c.89,1.64,2.12,2.94,3.67,3.88,1.55.94,3.33,1.41,5.31,1.41,1.43,0,2.72-.23,3.88-.69,1.16-.46,2.17-1.08,3.02-1.85.85-.78,1.48-1.64,1.89-2.58l-2.98-1.53c-.59.99-1.35,1.81-2.29,2.45-.94.64-2.1.96-3.48.96-1.25,0-2.4-.31-3.46-.94-1.06-.62-1.87-1.5-2.45-2.64-.43-.86-.67-1.82-.72-2.89h15.76c.05-.31.1-.63.13-.97.04-.34.06-.66.06-.94,0-1.27-.22-2.5-.67-3.69-.45-1.19-1.08-2.24-1.91-3.17ZM639.1,191.85c.99-.61,2.09-.92,3.29-.92s2.27.31,3.21.92c.94.61,1.66,1.44,2.14,2.49.31.67.46,1.4.47,2.18h-12.02c.11-.74.3-1.43.6-2.05.55-1.13,1.32-2.01,2.31-2.62Z"/>
    <path class="cls-1" d="M682.74,188.75c-1.16-.66-2.45-.99-3.88-.99-1.55,0-2.97.41-4.24,1.24-.94.61-1.68,1.44-2.22,2.47-.51-.94-1.23-1.73-2.16-2.38-1.29-.89-2.73-1.34-4.34-1.34-1.4,0-2.66.34-3.78,1.03-.81.5-1.46,1.16-1.95,1.98v-2.55h-3.48v20.6h3.56v-12.19c0-1.12.21-2.08.63-2.89.42-.8.99-1.43,1.72-1.87.73-.45,1.55-.67,2.47-.67s1.76.22,2.47.67c.7.45,1.25,1.06,1.66,1.85.41.79.61,1.76.61,2.91v12.19h3.59v-12.19c0-1.12.21-2.08.63-2.89.42-.8.99-1.43,1.72-1.87.73-.45,1.55-.67,2.47-.67s1.76.22,2.47.67c.7.45,1.26,1.06,1.66,1.85.41.79.61,1.76.61,2.91v12.19h3.59v-13.34c0-1.48-.34-2.8-1.03-3.98-.69-1.17-1.61-2.09-2.77-2.75Z"/>
    <path class="cls-1" d="M706.76,189.15c-1.61-.93-3.4-1.4-5.39-1.4s-3.82.47-5.43,1.41c-1.61.94-2.87,2.22-3.8,3.82-.93,1.61-1.4,3.44-1.4,5.5s.47,3.91,1.41,5.54c.94,1.63,2.22,2.91,3.82,3.84,1.61.93,3.4,1.4,5.39,1.4s3.7-.46,5.29-1.4c1.59-.93,2.87-2.2,3.84-3.82.97-1.62,1.45-3.47,1.45-5.56s-.47-3.94-1.4-5.54c-.93-1.61-2.2-2.87-3.8-3.8ZM707.28,202.25c-.6,1.12-1.41,2-2.45,2.64-1.03.64-2.19.96-3.46.96s-2.47-.32-3.5-.96c-1.03-.64-1.85-1.52-2.47-2.64-.61-1.12-.92-2.37-.92-3.75s.31-2.64.92-3.73c.61-1.08,1.43-1.95,2.47-2.6,1.03-.65,2.2-.98,3.5-.98s2.43.33,3.46.98c1.03.65,1.85,1.52,2.45,2.6.6,1.08.9,2.33.9,3.73s-.3,2.63-.9,3.75Z"/>
    <path class="cls-1" d="M721.9,188.85c-.76.44-1.37,1.06-1.83,1.85v-2.48h-3.48v20.6h3.56v-12.27c0-1.66.45-2.94,1.34-3.84.89-.9,2.06-1.36,3.52-1.36h1.8v-3.36h-1.26c-1.43,0-2.64.29-3.63.86Z"/>
    <path class="cls-1" d="M742.62,188.66c-1.2-.6-2.59-.9-4.17-.9-1.22,0-2.4.22-3.52.65-1.12.43-2.1,1.03-2.94,1.78-.84.75-1.45,1.6-1.83,2.54l3.1,1.61c.43-.99,1.1-1.79,2.01-2.39.9-.6,1.94-.9,3.12-.9,1.35,0,2.44.35,3.27,1.05.83.7,1.24,1.61,1.24,2.73v.94l-7.03,1.16c-1.53.25-2.8.69-3.8,1.3-1.01.61-1.75,1.36-2.22,2.24-.47.88-.71,1.87-.71,2.96s.29,2.16.88,3.04c.59.88,1.4,1.57,2.43,2.06,1.03.5,2.22.75,3.57.75,1.17,0,2.26-.18,3.25-.53.99-.36,1.86-.84,2.6-1.45.42-.35.79-.73,1.11-1.15v2.68h3.48v-13.99c0-1.4-.34-2.63-1.01-3.69-.68-1.06-1.61-1.89-2.81-2.48ZM742.07,203.2c-.55.94-1.3,1.69-2.26,2.24-.96.55-2.08.82-3.38.82-1.02,0-1.87-.28-2.54-.84-.68-.56-1.01-1.26-1.01-2.1,0-.89.3-1.64.9-2.26.6-.61,1.56-1.03,2.89-1.26l6.23-1.04v1.31c0,1.15-.27,2.19-.82,3.13Z"/>
    <path class="cls-1" d="M767.87,189.17c-1.54-.94-3.28-1.41-5.22-1.41-1.71,0-3.22.36-4.55,1.09-1.04.57-1.9,1.3-2.6,2.18v-11.14h-3.56v28.94h3.48v-3.01c.69.98,1.57,1.77,2.66,2.36,1.36.74,2.87,1.11,4.53,1.11,1.96,0,3.71-.47,5.26-1.41,1.54-.94,2.76-2.23,3.65-3.86.89-1.63,1.34-3.45,1.34-5.47s-.45-3.91-1.34-5.52c-.89-1.62-2.11-2.9-3.65-3.84ZM768.21,202.27c-.57,1.11-1.37,1.98-2.39,2.62-1.02.64-2.18.96-3.48.96s-2.47-.32-3.5-.96c-1.03-.64-1.85-1.51-2.45-2.62-.6-1.11-.9-2.35-.9-3.73s.3-2.66.9-3.77c.6-1.11,1.41-1.98,2.45-2.62,1.03-.64,2.2-.96,3.5-.96s2.46.33,3.48.98c1.02.65,1.82,1.52,2.39,2.6.57,1.08.86,2.34.86,3.77s-.29,2.62-.86,3.73Z"/>
    <rect class="cls-1" x="777.52" y="179.88" width="3.56" height="28.94"/>
    <path class="cls-1" d="M802.85,190.8c-.83-.93-1.84-1.67-3.02-2.22-1.19-.55-2.54-.82-4.07-.82-1.89,0-3.59.47-5.1,1.4-1.52.93-2.71,2.2-3.59,3.8-.88,1.61-1.32,3.44-1.32,5.5s.45,3.88,1.34,5.52c.89,1.64,2.12,2.94,3.67,3.88,1.55.94,3.33,1.41,5.31,1.41,1.43,0,2.72-.23,3.88-.69,1.16-.46,2.17-1.08,3.02-1.85.85-.78,1.48-1.64,1.89-2.58l-2.98-1.53c-.59.99-1.35,1.81-2.29,2.45-.94.64-2.1.96-3.48.96-1.25,0-2.4-.31-3.46-.94-1.06-.62-1.87-1.5-2.45-2.64-.43-.86-.67-1.82-.72-2.89h15.76c.05-.31.1-.63.13-.97.04-.34.06-.66.06-.94,0-1.27-.22-2.5-.67-3.69-.45-1.19-1.08-2.24-1.91-3.17ZM792.47,191.85c.99-.61,2.09-.92,3.29-.92s2.27.31,3.21.92c.94.61,1.66,1.44,2.14,2.49.31.67.46,1.4.47,2.18h-12.02c.11-.74.3-1.43.6-2.05.55-1.13,1.32-2.01,2.31-2.62Z"/>
    <path class="cls-1" d="M823.53,199.61c-.93-1.02-2.24-1.77-3.92-2.26l-3.36-.99c-.41-.13-.83-.29-1.26-.48-.43-.19-.8-.47-1.11-.84-.31-.37-.46-.85-.46-1.43,0-.79.31-1.45.92-1.97.61-.52,1.44-.78,2.48-.78,1.15,0,2.18.31,3.1.94.92.62,1.61,1.47,2.06,2.54l2.91-1.34c-.61-1.66-1.64-2.94-3.08-3.86-1.44-.92-3.07-1.38-4.87-1.38-1.35,0-2.57.26-3.65.76-1.08.51-1.94,1.22-2.56,2.12-.62.91-.94,1.97-.94,3.19,0,1.33.43,2.48,1.28,3.48.85.99,2.21,1.76,4.07,2.29l3.1.88c.41.1.85.26,1.34.48.48.22.9.51,1.24.88.34.37.52.86.52,1.47,0,.87-.37,1.57-1.11,2.1-.74.54-1.67.8-2.79.8-1.25,0-2.38-.36-3.4-1.07-1.02-.71-1.82-1.68-2.41-2.91l-2.83,1.38c.64,1.73,1.72,3.11,3.25,4.13,1.53,1.02,3.33,1.53,5.39,1.53,1.48,0,2.78-.25,3.9-.76s2-1.22,2.64-2.14.96-1.95.96-3.1c0-1.43-.47-2.65-1.4-3.67Z"/>
  </g>
  <g>
    <path class="cls-1" d="M273.01,59.94c-5.42,0-10.11,1.19-14.08,3.57-3.96,2.38-7.24,5.52-9.81,9.42-2.58,3.9-4.59,8.13-6.05,12.69-1.03,3.21-1.81,6.4-2.38,9.58v-33.27h-35.68v97.93h35.68v-49.36c0-5.28.72-9.68,2.18-13.18,1.45-3.5,3.4-6.11,5.85-7.83,2.44-1.72,4.99-2.58,7.63-2.58,2.91,0,4.99.86,6.24,2.58,1.25,1.72,1.88,3.96,1.88,6.74s-.79,6.05-2.38,9.42c-1.59,3.37-3.31,6.11-5.15,8.23h32.71c1.45-2.51,2.94-6.15,4.46-10.9,1.52-4.76,2.28-10.11,2.28-16.06,0-8.19-1.75-14.74-5.25-19.63-3.5-4.89-9.55-7.34-18.14-7.34Z"/>
    <path class="cls-1" d="M390.67,131.41c-.73-.86-1.09-2.34-1.09-4.46v-29.54c0-12.55-3.64-21.94-10.9-28.15-7.27-6.21-17.18-9.32-29.74-9.32-6.74,0-13.15.83-19.23,2.48-6.08,1.65-11.7,3.9-16.85,6.74-5.15,2.84-9.78,6.11-13.88,9.81l15.86,26.17c4.1-4.62,9.05-8.33,14.87-11.1,5.81-2.78,11.56-4.16,17.25-4.16s9.18,1.32,10.51,3.96c.54,1.07.96,2.43,1.28,4.07l-26.26,8.02c-10.84,3.31-18.67,7.37-23.49,12.19-4.83,4.83-7.24,11.2-7.24,19.13,0,8.86,2.48,15.2,7.43,19.03,4.96,3.83,11,5.75,18.14,5.75s12.59-1.62,16.75-4.86c4.16-3.24,7.34-7.17,9.52-11.8,1.9-4.02,3.31-7.94,4.26-11.76v7.6c0,4.63,1.06,8.3,3.17,11,2.11,2.71,4.86,4.66,8.23,5.85,3.37,1.19,6.9,1.78,10.61,1.78h20.22v-27.16h-5.75c-1.72,0-2.94-.43-3.67-1.29ZM356.87,129.13c-.66,1.85-1.68,3.37-3.07,4.56-1.39,1.19-3.14,2.08-5.25,2.68-2.12.59-4.63.89-7.53.89-2.51,0-4.4-.43-5.65-1.29-1.26-.86-1.88-2.08-1.88-3.67,0-1.32.56-2.51,1.68-3.57,1.12-1.06,3.34-2.18,6.64-3.37l16.06-5.69v2.92c0,2.51-.33,4.69-.99,6.54Z"/>
    <polygon class="cls-1" points="470.47 61.92 460.75 101.37 453.82 141.22 446.68 101.37 436.97 61.92 397.32 61.92 431.02 159.85 476.02 159.85 509.72 61.92 470.47 61.92"/>
    <path class="cls-1" d="M584.66,66.48c-7.01-4.36-16.13-6.54-27.36-6.54-9.91,0-18.54,2.18-25.87,6.54-7.34,4.36-13.02,10.38-17.05,18.04-4.03,7.67-6.05,16.45-6.05,26.37s2.01,18.7,6.05,26.37c4.03,7.67,9.94,13.68,17.74,18.04,7.8,4.36,17.31,6.54,28.55,6.54s20.25-1.98,27.06-5.95c6.81-3.97,12.06-8.39,15.76-13.28l-21.61-20.62c-1.19,2.78-2.81,4.99-4.86,6.64-2.05,1.65-4.36,2.84-6.94,3.57-2.58.73-5.52,1.09-8.82,1.09-3.84,0-7.3-.59-10.41-1.78-3.11-1.19-5.55-3.14-7.34-5.85-.98-1.48-1.67-3.24-2.12-5.25h62.88c.26-1.19.5-3.3.69-6.34.2-3.04.3-5.75.3-8.13,0-7.93-1.69-15.4-5.06-22.4-3.37-7-8.56-12.69-15.56-17.05ZM557.5,86.5c5.81,0,9.91,1.52,12.29,4.56,2.06,2.64,3.23,6.28,3.5,10.9h-32.38c.31-4.83,1.77-8.53,4.4-11.1,2.97-2.91,7.04-4.36,12.19-4.36Z"/>
    <path class="cls-1" d="M707.47,68.07c-5.22-5.42-12.39-8.13-21.51-8.13-7.4,0-13.38,1.69-17.94,5.06-4.56,3.37-8,7.77-10.31,13.18-1.78,4.17-3.06,8.49-3.87,12.97v-29.23h-35.68v97.93h35.68v-53.33c0-5.28.36-9.35,1.09-12.19.72-2.84,2.01-4.79,3.87-5.85,1.85-1.06,4.49-1.59,7.93-1.59,5.42,0,8.92,1.56,10.51,4.66,1.59,3.11,2.38,7.63,2.38,13.58v54.72h35.68v-68.59c0-10.04-2.61-17.77-7.83-23.19Z"/>
    <path class="cls-1" d="M164.23,98.35c-7.47-2.78-17.54-4.17-30.23-4.17,4.89,0,10.08-.33,15.56-.99,5.49-.66,10.61-2.05,15.37-4.17,4.76-2.11,8.65-5.28,11.7-9.52,3.04-4.22,4.56-9.91,4.56-17.05,0-5.95-1.32-11.5-3.97-16.66-2.65-5.15-7.03-9.28-13.18-12.39-6.15-3.1-14.64-4.66-25.47-4.66h-69.59c-.76,0-1.38.62-1.38,1.38v110.15c0,1.52,2.1,1.93,2.67.52l25.96-64.25c1.11-2.75,4.25-4.09,7-2.97,2.76,1.11,4.09,4.25,2.97,7.01l-31.95,79.09c-.37.91.3,1.9,1.28,1.9h62.44c9.38,0,17.61-1.02,24.68-3.07,7.07-2.05,12.59-5.52,16.56-10.41,3.97-4.89,5.95-11.7,5.95-20.42,0-6.74-1.62-12.62-4.86-17.64-3.24-5.02-8.59-8.93-16.06-11.7ZM160.87,130.68l-45.62,25.53c-.93.52-1.96.77-2.99.77-1.89,0-3.74-.85-4.81-2.41-1.65-2.39-.84-5.53,1.82-7.02l35.28-19.74c.96-.54.94-1.94-.05-2.44l-35.04-17.93c-2.72-1.4-3.67-4.51-2.12-6.95,1.55-2.45,5-3.3,7.72-1.91l45.61,23.34c1.73.89,2.82,2.53,2.87,4.32.04,1.8-.98,3.48-2.67,4.43Z"/>
  </g>
</svg>